<svg width="41" height="41" viewBox="0 0 41 41" fill="none" xmlns="http://www.w3.org/2000/svg">
<path d="M20.7719 0C16.7887 0 12.8946 1.1812 9.58257 3.39425C6.27051 5.60729 3.68907 8.75279 2.1647 12.433C0.640326 16.113 0.241471 20.1627 1.01859 24.0695C1.7957 27.9764 3.7139 31.5649 6.53057 34.3818C9.34725 37.1984 12.9359 39.1166 16.8428 39.8937C20.7495 40.6709 24.7993 40.2719 28.4794 38.7475C32.1595 37.2231 35.305 34.6419 37.5181 31.3298C39.7311 28.0177 40.9123 24.1238 40.9123 20.1403C40.9123 14.7988 38.7903 9.67602 35.0134 5.89898C31.2364 2.12191 26.1134 0 20.7719 0ZM30.6659 13.7961L27.3679 29.3797C27.1162 30.4874 26.4616 30.7392 25.5301 30.2357L20.495 26.5097L17.9775 28.851C17.8589 29.0059 17.7066 29.1317 17.5321 29.2191C17.3577 29.3062 17.1656 29.3525 16.9705 29.3545L17.3229 24.3195L26.6378 15.8857C27.0658 15.5332 26.6378 15.3318 26.0336 15.6843L14.604 22.8593L9.56887 21.2984C8.48633 20.9711 8.46115 20.2159 9.79545 19.7123L29.2057 12.1597C30.1624 11.8828 30.968 12.4367 30.6659 13.7961Z" fill="#01A0EB"/>
</svg>
