<svg width="26" height="26" viewBox="0 0 26 26" fill="none" xmlns="http://www.w3.org/2000/svg">
<g clip-path="url(#clip0_8_919)">
<path fill-rule="evenodd" clip-rule="evenodd" d="M13.1369 0.63158C6.39576 0.63158 0.912354 6.11652 0.912354 12.8595C0.912354 15.5337 1.77476 18.0138 3.24079 20.0268L1.71716 24.57L6.41725 23.0678C8.35038 24.3474 10.6573 25.0877 13.144 25.0877C19.8851 25.0877 25.3685 19.6026 25.3685 12.8598C25.3685 6.11674 19.8851 0.631782 13.144 0.631782L13.1369 0.63158ZM9.72311 6.84284C9.48601 6.27497 9.3063 6.25347 8.9471 6.23886C8.8248 6.23176 8.6885 6.22467 8.53739 6.22467C8.07008 6.22467 7.58148 6.36121 7.28677 6.6631C6.92756 7.02971 6.03633 7.88506 6.03633 9.63918C6.03633 11.3933 7.31557 13.0898 7.48797 13.3272C7.66767 13.5642 9.9819 17.2161 13.5752 18.7044C16.3851 19.869 17.2189 19.761 17.8585 19.6245C18.7927 19.4232 19.9642 18.7328 20.2589 17.8992C20.5536 17.0651 20.5536 16.3534 20.4672 16.2025C20.381 16.0515 20.1437 15.9655 19.7845 15.7855C19.4253 15.6058 17.6788 14.7431 17.3481 14.6281C17.0246 14.5059 16.7157 14.5492 16.4715 14.8943C16.1265 15.3759 15.7888 15.8649 15.5156 16.1594C15.3 16.3895 14.9477 16.4183 14.6532 16.296C14.2579 16.1308 13.1513 15.7423 11.7857 14.5274C10.7291 13.5859 10.0105 12.4142 9.80222 12.062C9.59372 11.7027 9.7807 11.4939 9.9458 11.3C10.1255 11.077 10.2979 10.919 10.4776 10.7104C10.6573 10.502 10.7579 10.3941 10.8729 10.1496C10.9952 9.91247 10.9088 9.66799 10.8226 9.48824C10.7364 9.30848 10.0178 7.55435 9.72311 6.84284Z" fill="white"/>
</g>
<defs>
<clipPath id="clip0_8_919">
<rect width="24.4561" height="24.4561" fill="white" transform="translate(0.912354 0.63158)"/>
</clipPath>
</defs>
</svg>
