<svg width="23" height="23" viewBox="0 0 23 23" fill="none" xmlns="http://www.w3.org/2000/svg">
<g clip-path="url(#clip0_134_966)">
<path fill-rule="evenodd" clip-rule="evenodd" d="M11.6829 0.578979C5.76391 0.578979 0.949219 5.39502 0.949219 11.3157C0.949219 13.6638 1.70645 15.8414 2.9937 17.6089L1.65588 21.598L5.78279 20.2791C7.48017 21.4026 9.50578 22.0527 11.6892 22.0527C17.6082 22.0527 22.4229 17.2364 22.4229 11.3159C22.4229 5.39521 17.6082 0.579157 11.6892 0.579157L11.6829 0.578979ZM8.68549 6.03277C8.4773 5.53415 8.31952 5.51527 8.00412 5.50245C7.89673 5.49621 7.77705 5.48998 7.64437 5.48998C7.23405 5.48998 6.80503 5.60987 6.54627 5.87495C6.23087 6.19685 5.44832 6.94789 5.44832 8.48809C5.44832 10.0283 6.57155 11.5179 6.72293 11.7263C6.88072 11.9344 8.91273 15.141 12.0678 16.4478C14.5351 17.4703 15.2672 17.3756 15.8287 17.2557C16.649 17.079 17.6777 16.4727 17.9364 15.7408C18.1952 15.0084 18.1952 14.3835 18.1193 14.251C18.0436 14.1184 17.8353 14.0429 17.5199 13.8849C17.2045 13.7271 15.6709 12.9696 15.3806 12.8686C15.0966 12.7613 14.8254 12.7993 14.6109 13.1023C14.308 13.5252 14.0115 13.9545 13.7716 14.2132C13.5823 14.4152 13.2729 14.4405 13.0143 14.3331C12.6673 14.1881 11.6956 13.8469 10.4965 12.7802C9.56883 11.9535 8.93786 10.9247 8.75496 10.6155C8.57188 10.3 8.73606 10.1167 8.88102 9.94636C9.03881 9.75058 9.19021 9.61181 9.348 9.42868C9.50579 9.24573 9.59412 9.15096 9.6951 8.9363C9.80249 8.72805 9.72661 8.51339 9.65092 8.35556C9.57523 8.19772 8.94426 6.65751 8.68549 6.03277Z" fill="white"/>
</g>
<defs>
<clipPath id="clip0_134_966">
<rect width="21.4737" height="21.4737" fill="white" transform="translate(0.949219 0.578979)"/>
</clipPath>
</defs>
</svg>
